<svg xmlns="http://www.w3.org/2000/svg" version="1.1" xmlns:xlink="http://www.w3.org/1999/xlink"
     width="512" height="512" x="0" y="0" viewBox="0 0 682.667 682.667"
     style="enable-background:new 0 0 512 512" xml:space="preserve" class=""><g><defs><clipPath id="a" clipPathUnits="userSpaceOnUse"><path d="M0 512h512V0H0Z" fill="#ef394e" ></path></clipPath><clipPath
        id="b" clipPathUnits="userSpaceOnUse"><path d="M0 512h512V0H0Z" fill="#ef394e" ></path></clipPath><clipPath
        id="c" clipPathUnits="userSpaceOnUse"><path d="M0 512h512V0H0Z" fill="#ef394e" ></path></clipPath></defs><path
        d="M0 0v-60h90"
        style="stroke-width:30;stroke-linecap:square;stroke-linejoin:miter;stroke-miterlimit:10;stroke-dasharray:none;stroke-opacity:1"
        transform="matrix(1.33333 0 0 -1.33333 101.333 500)" fill="none" stroke="#ef394e" stroke-width="30"
        stroke-linecap="square" stroke-linejoin="miter" stroke-miterlimit="10" stroke-dasharray="none" stroke-opacity=""
></path><g clip-path="url(#a)" transform="matrix(1.33333 0 0 -1.33333 0 682.667)"><path d="M0 0v122" style="stroke-width:30;stroke-linecap:square;stroke-linejoin:miter;stroke-miterlimit:10;stroke-dasharray:none;stroke-opacity:1" transform="translate(136 15)" fill="none" stroke="#ef394e" stroke-width="30" stroke-linecap="square" stroke-linejoin="miter" stroke-miterlimit="10" stroke-dasharray="none" stroke-opacity="" ></path></g><path
        d="M0 0v-60h90"
        style="stroke-width:30;stroke-linecap:square;stroke-linejoin:miter;stroke-miterlimit:10;stroke-dasharray:none;stroke-opacity:1"
        transform="matrix(1.33333 0 0 -1.33333 461.333 500)" fill="none" stroke="#ef394e" stroke-width="30"
        stroke-linecap="square" stroke-linejoin="miter" stroke-miterlimit="10" stroke-dasharray="none" stroke-opacity=""
></path><g clip-path="url(#b)" transform="matrix(1.33333 0 0 -1.33333 0 682.667)"><path d="M0 0v122" style="stroke-width:30;stroke-linecap:square;stroke-linejoin:miter;stroke-miterlimit:10;stroke-dasharray:none;stroke-opacity:1" transform="translate(406 15)" fill="none" stroke="#ef394e" stroke-width="30" stroke-linecap="square" stroke-linejoin="miter" stroke-miterlimit="10" stroke-dasharray="none" stroke-opacity="" ></path>
    <path d="M286 15h-60v122h60z"
          style="stroke-width:30;stroke-linecap:square;stroke-linejoin:miter;stroke-miterlimit:10;stroke-dasharray:none;stroke-opacity:1"
          fill="none" stroke="#ef394e" stroke-width="30" stroke-linecap="square" stroke-linejoin="miter"
          stroke-miterlimit="10" stroke-dasharray="none" stroke-opacity=""></path></g><path
        d="M0 0v-90"
        style="stroke-width:30;stroke-linecap:square;stroke-linejoin:miter;stroke-miterlimit:10;stroke-dasharray:none;stroke-opacity:1"
        transform="matrix(1.33333 0 0 -1.33333 341.333 140)" fill="none" stroke="#ef394e" stroke-width="30"
        stroke-linecap="square" stroke-linejoin="miter" stroke-miterlimit="10" stroke-dasharray="none" stroke-opacity=""
></path><path d="M0 0v-30"
              style="stroke-width:30;stroke-linecap:butt;stroke-linejoin:miter;stroke-miterlimit:10;stroke-dasharray:none;stroke-opacity:1"
              transform="matrix(1.33333 0 0 -1.33333 341.333 320)" fill="none"
              stroke="#ef394e" stroke-width="30" stroke-linecap="butt"
              stroke-linejoin="miter" stroke-miterlimit="10" stroke-dasharray="none"
              stroke-opacity=""></path><g clip-path="url(#c)"
                                          transform="matrix(1.33333 0 0 -1.33333 0 682.667)"><path d="M0 0h300c16.568 0 30 13.432 30 30a29.852 29.852 0 0 1-4.542 15.878l-150 240C170.158 294.358 160.738 300 150 300c-10.738 0-20.158-5.642-25.458-14.122l-150-240A29.852 29.852 0 0 1-30 30C-30 13.432-16.568 0 0 0Z" style="stroke-width:30;stroke-linecap:square;stroke-linejoin:miter;stroke-miterlimit:10;stroke-dasharray:none;stroke-opacity:1" transform="translate(106 197)" fill="none" stroke="#ef394e" stroke-width="30" stroke-linecap="square" stroke-linejoin="miter" stroke-miterlimit="10" stroke-dasharray="none" stroke-opacity="" ></path></g></g></svg>