<?xml version="1.0" encoding="utf-8"?>
<!-- Generator: Adobe Illustrator 21.0.0, SVG Export Plug-In . SVG Version: 6.00 Build 0)  -->
<svg version="1.1" id="Layer_1" xmlns="http://www.w3.org/2000/svg" xmlns:xlink="http://www.w3.org/1999/xlink" x="0px" y="0px"
	 viewBox="0 0 816 611.5" style="enable-background:new 0 0 816 611.5;" xml:space="preserve">
<style type="text/css">
	.st0{fill:#9417D9;}
</style>
<g>
	<path class="st0" d="M220.2,227.4c0,31.2-25.4,56.5-56.7,56.5s-56.7-25.3-56.7-56.5l0.1-28.5h14c0,0,0.1,0,0.1,0
		c7.8,0,14.2,6.3,14.2,14.1v14.1c0,15.7,12.7,28.3,28.3,28.3s28.3-12.7,28.3-28.3v-14.3c0-39-31.7-70.7-70.8-70.8v0h-71v70.3v5.3
		v9.7c0,62.4,50.9,113.2,113.4,113.2s113.4-50.8,113.4-113.2v-85.2h-56.7V227.4z"/>
	<g>
		<path class="st0" d="M390.7,493.5c3.5-5.3,5.6-11.7,5.6-18.6c0-18.3-14.8-33.6-32.9-33.6c-0.2,0-38.1,0-38.1,0h-12.5h-13.1v118.3
			l64.5,0.1c21.2,0,38.4-17.2,38.4-38.4C402.7,510.4,398.1,500.5,390.7,493.5z M364.3,534.1h-38.9V467h37.3c4.4,0,8,3.6,8,8
			c0,4.4-3.6,8-8,8h-2.1c-14.1,0-25.6,11.5-25.6,25.6h29.3c7,0,12.7,5.7,12.7,12.8C377.1,528.4,371.4,534.1,364.3,534.1z"/>
		<path class="st0" d="M226.2,439.7c-31.8,0-57.7,27.3-57.7,60.9s25.9,60.9,57.7,60.9c31.8,0,57.7-27.3,57.7-60.9
			S258,439.7,226.2,439.7z M226.2,535.8c-17.7,0-32.1-15.8-32.1-35.2c0-19.4,14.4-35.2,32.1-35.2c17.7,0,32.1,15.8,32.1,35.2
			C258.3,520,243.9,535.8,226.2,535.8z"/>
		<path class="st0" d="M740.4,465.4v49.5l-51.2-73.5l0,0h-25.6v118.4c14.1,0,25.6-11.5,25.6-25.6v-48l51.2,73.7l0,0v0H766V439.8
			C751.8,439.8,740.4,451.2,740.4,465.4z"/>
		<path class="st0" d="M126.8,465.4v49.5l-51.2-73.5l0,0H50v118.4c14.1,0,25.6-11.5,25.6-25.6v-48l51.2,73.7l0,0v0h25.6V439.8
			C138.3,439.8,126.8,451.2,126.8,465.4z"/>
		<path class="st0" d="M644.3,491.3c0-29.1-24.2-52.6-53.5-51.5c-27.9,1.1-49.5,24.9-49.5,52.8v69l0,0c14.1,0,25.6-11.5,25.6-25.6
			v-44.6c0-15.1,13-27.2,28.4-25.8c13.4,1.3,23.4,13.1,23.4,26.6v3.7h-16.3c-14.1,0-25.6,11.5-25.6,25.6h41.9v38.2h25.6v-38.2h0.1
			L644.3,491.3z"/>
		<path class="st0" d="M522,491.3c0-29.1-24.2-52.6-53.5-51.5c-27.9,1.1-49.5,24.9-49.5,52.8v69c14.1,0,25.6-11.5,25.6-25.6v-44.6
			c0-15.1,13-27.2,28.4-25.8c13.4,1.3,23.4,13.1,23.4,26.6v3.7H480c-14.1,0-25.6,11.5-25.6,25.6h41.9v38.2H522v-38.2h0.1L522,491.3z
			"/>
	</g>
	
		<rect x="370.2" y="348.8" transform="matrix(-0.7071 -0.7071 0.7071 -0.7071 405.3982 905.6969)" class="st0" width="40.1" height="40.1"/>
	
		<rect x="668" y="58.3" transform="matrix(-0.7071 -0.7071 0.7071 -0.7071 1119.1737 620.27)" class="st0" width="40.1" height="40.1"/>
	<path class="st0" d="M418.6,230.8c0,15.7-12.7,28.4-28.3,28.4c-15.6,0-28.3-12.8-28.3-28.4v-7.8h0V106.7c0-15.7-6.4-29.9-16.6-40.1
		C335.1,56.4,320.9,50,305.3,50v173h0v7.8c0,46.9,38.1,85.1,85,85.1s85-38.2,85-85.1v-88.7h-56.7V230.8z"/>
	<path class="st0" d="M709.3,142.2v86.2c0,14.9-12.1,27-27,27h-15.5v0h0V142.2h-28.3v-0.1h-57.1c-46.7,0-84.6,38.1-84.6,85
		s38,85,84.6,85h28.8v56.7c15.6,0,29.8-6.3,40.1-16.6c10.2-10.2,16.6-24.3,16.6-40h0v-0.1c0,0,0,0,0-0.1v0h15.5
		c46.1,0,83.7-37.5,83.7-83.7v-86.2H709.3z M581.3,255.5c-15.4,0-27.9-12.7-27.9-28.3s12.5-28.3,27.9-28.3h28.8v56.6h0v0.1H581.3z"
		/>
</g>
</svg>
