<svg xmlns="http://www.w3.org/2000/svg" version="1.1" xmlns:xlink="http://www.w3.org/1999/xlink"
     width="512" height="512" x="0" y="0" viewBox="0 0 585.994 585.994"
     style="enable-background:new 0 0 512 512" xml:space="preserve" class=""><g><path d="M567.345 207.173s3.271-5.353 3.773-7.365c.502-2.011.253-3.146-.755-3.774s-13.333 4.904-13.333 4.904 1.383-10.188-5.03-8.05c-6.414 2.138-15.097 8.303-15.097 8.303s-47.046-11.53-60.963-14.549c-13.921-3.019-26.667-3.354-46.125 4.696-19.453 8.05-52.999 12.044-64.402 20.783 0 0-10.734-.293-23.48 3.889-12.746 4.178-75.811 15.247-85.872 14.912-10.061-.335-19.119 7.523-58.703-11.334-39.58-18.858-35.892-10.47-91.576-25.231-55.68-14.757-87.549 3.019-100.964 32.204-13.415 29.184 3.709 26.414 20.461.922 0 0 22.473-36.479 75.811-11.657 53.333 24.823 104.99 23.146 87.548 44.95s-21.803 44.276-35.892 46.961-19.119 8.384-30.861 7.046c-11.742-1.343-13.419 6.707-15.43 13.754-2.012 7.046-5.031 19.792-3.354 24.822 1.677 5.031-.237 26.834 5.585 33.542 5.822 6.707 8.168 3.688 8.168 3.688s1.007 13.419 10.734 8.384c0 0 15.431 9.393 9.392-9.392 0 0 11.742 7.046 12.411 4.696.669-2.351-3.186-8.552-5.953-10.062-2.766-1.51-5.031-8.303-11.824-9.058 0 0 1.008-16.353 1.008-20.127 0-3.773 3.774-2.767 5.786-3.02 2.011-.253 8.804-4.528 8.804-4.528s52.077 3.774 69.687-13.835 46.793-20.882 46.793-20.882 40 9.307 55.346-1.51c0 0 59.119 12.077 107.675-20.628 0 0 19.372 15.851 24.904 17.862 5.537 2.011 11.069 13.08 4.782 17.107-6.292 4.026-11.322 14.088-8.805 16.1 0 0-3.774 9.058 2.766 10.566 0 0 6.541 8.304 11.824.502 0 0 6.793-1.509 10.567-9.56 3.773-8.05 6.54-3.271 7.295-10.566 0 0 7.295-15.275 3.521-28.393 0 0 7.047-1.294 10.567 3.488 3.521 4.781 6.039 0 9.812 5.785 3.774 5.785 12.832 14.088 16.353 13.586 3.521-.501 8.552 4.276 11.322-.754 2.771-5.031 11.322-4.276 9.307-11.322 0 0 5.03-7.548-3.02-9.56s4.529-14.088-18.617-14.088c0 0-3.773-.755-6.038-4.529s-23.647-18.364-29.434-19.119c0 0 15.852-21.889 35.223-16.1 19.372 5.786 24.15 8.552 31.449 9.058 7.295.502 13.586 15.852 24.904 2.767 0 0 6.54-3.02 6.291-5.785 0 0 3.774-3.272 4.276-5.786.502-2.517-5.786-10.815-6.038-15.345-.254-4.529 3.52-10.682-12.579-29.368z" fill="#61dafb"></path></g></svg>